<svg version="1.1" id="Ebene_1" xmlns="http://www.w3.org/2000/svg" xmlns:xlink="http://www.w3.org/1999/xlink" x="0px" y="0px"
	 viewBox="0 0 536.6 294.6" style="enable-background:new 0 0 536.6 294.6;" xml:space="preserve">
<style type="text/css">
	.st0{fill:#555554;}
	.st1{clip-path:url(#SVGID_3_);}
	.st2{fill:url(#SVGID_4_);}
</style>
<title>group24_Logo_RGB</title>
<path class="st0" d="M73.9,241.9h4.3v36.4h-4.3V241.9z M73.9,227.3h4.3v5.5h-4.3V227.3z"/>
<path class="st0" d="M107.5,245.7H95.3v18c0,4.7,0.3,7.8,1,9.2c0.7,1.5,2.3,2.2,4.8,2.2l6.7-0.5l0.3,3.7c-2.4,0.4-4.9,0.6-7.4,0.7
	c-3.7,0-6.2-0.9-7.7-2.7s-2.2-5.3-2.1-10.4v-20.2h-5.4v-3.9H91v-11.4h4.4v11.4h12.2V245.7z"/>
<rect x="114" y="270.9" class="st0" width="4.8" height="7.4"/>
<polygon class="st0" points="142.3,241.9 146.7,241.9 154.7,274.5 155.8,274.5 165.2,242.6 169.8,242.6 179.3,274.5 180.4,274.5 
	188.4,241.9 192.8,241.9 183.7,278.3 176.1,278.3 167.5,248.3 158.9,278.3 151.4,278.3 "/>
<path class="st0" d="M203.1,259.9c0,5.8,0.7,9.7,2,11.9s4.2,3.3,8.7,3.3s7.4-1.1,8.8-3.4s2-6.2,2-11.9c0-5.7-0.8-9.6-2.3-11.7
	s-4.4-3.2-8.5-3.2s-7,1-8.5,3.1S203.1,254.1,203.1,259.9 M198.6,260c0-6.8,1.2-11.7,3.5-14.5s6.2-4.3,11.8-4.3
	c5.6,0,9.5,1.4,11.8,4.3c2.3,2.9,3.5,7.7,3.5,14.5c0,6.9-1.1,11.7-3.2,14.6c-2.1,2.9-6.1,4.4-12,4.4c-5.9,0-9.9-1.5-12.1-4.4
	C199.7,271.7,198.6,266.8,198.6,260"/>
<path class="st0" d="M238.5,278.3v-36.4h4.3v5.2c2.1-1.4,4.3-2.6,6.6-3.6c2.3-1.1,4.7-1.8,7.2-2.3v4.4c-2.2,0.5-4.4,1.2-6.5,2
	c-1.8,0.7-3.6,1.5-5.3,2.4l-1.9,1.1v27.3L238.5,278.3z"/>
<polygon class="st0" points="267.5,278.3 263.2,278.3 263.2,225.7 267.5,225.7 267.5,257 273.7,256.9 284.9,241.9 289.9,241.9 
	277.5,258.5 290.5,278.3 285.4,278.3 273.7,260.7 267.5,260.9 "/>
<path class="st0" d="M308.4,245.1c-5.7,0-8.6,2.1-8.6,6.2c-0.2,1.6,0.6,3.1,1.9,4c1.3,0.8,4.1,1.5,8.5,2.3c4.4,0.8,7.6,1.8,9.4,3.1
	c1.8,1.3,2.7,3.8,2.7,7.5c0,3.7-1.2,6.4-3.6,8.2s-5.9,2.6-10.5,2.6c-3.5-0.1-6.9-0.4-10.3-1l-2.1-0.3l0.3-3.9
	c4.1,0.7,8.3,1.1,12.5,1.2c2.4,0.1,4.7-0.4,6.8-1.5c1.6-1,2.4-2.7,2.4-5.2s-0.7-4-2-4.8s-4.2-1.5-8.6-2.2s-7.5-1.6-9.3-2.9
	s-2.7-3.6-2.7-7.1s1.2-6,3.7-7.6c2.8-1.7,5.9-2.5,9.2-2.4c3.7,0.1,7.3,0.4,10.9,1l2,0.3l-0.1,3.9
	C316.9,245.6,312.6,245.2,308.4,245.1"/>
<rect x="330.8" y="270.9" class="st0" width="4.8" height="7.4"/>
<path class="st0" d="M365,258.2h20.5c0-4.8-0.8-8.2-2.4-10.3c-1.6-2-4.1-3.1-7.6-3.1c-3.5,0-6.1,1.1-7.9,3.2S365,253.6,365,258.2
	 M386.3,274.6l2.2-0.2l0.1,3.6c-4.6,0.6-9.3,0.9-13.9,1c-5.2,0-8.9-1.6-11-4.7s-3.1-7.8-3.1-14.1c0-12.7,5-19.1,15-19.1
	c4.8,0,8.4,1.4,10.8,4.1c2.4,2.7,3.6,7.1,3.6,13.1l-0.2,3.5H365c0,4.5,0.8,7.8,2.3,9.9c1.5,2.2,4.1,3.2,7.9,3.2
	C378.9,275,382.6,274.9,386.3,274.6"/>
<path class="st0" d="M401,267.9c0,4.9,2,7.4,6,7.4c1.9,0,3.9-0.2,5.8-0.6c1.7-0.3,3.4-0.7,5-1.3l1.8-0.7v-13.2l-11.9,1.2
	c-2.4,0.2-4.1,0.9-5.1,2C401.4,264.2,400.9,266.1,401,267.9 M423.8,252.7v19.5c0.2,1.8,1.8,2.9,4.7,3.2l-0.2,3.5
	c-3.7,0-6.5-1-8.2-2.9c-4.3,1.9-9,3-13.7,3c-3.3,0-5.7-0.9-7.4-2.8s-2.5-4.5-2.5-8s0.9-6,2.6-7.7s4.4-2.7,8.1-3.1l12.4-1.2v-3.4
	c0-2.7-0.6-4.7-1.8-5.9c-1.3-1.2-3-1.9-4.8-1.8c-4,0.1-8.1,0.4-12.1,0.9l-2.3,0.2l-0.2-3.5c4.6-0.9,9.3-1.5,14-1.5
	c4,0,6.9,0.9,8.7,2.8C422.9,245.9,423.8,248.8,423.8,252.7"/>
<path class="st0" d="M446.2,245.1c-5.7,0-8.6,2.1-8.6,6.2c-0.2,1.6,0.6,3.1,1.9,4c1.3,0.8,4.1,1.5,8.5,2.3s7.6,1.8,9.4,3.1
	c1.8,1.3,2.7,3.8,2.7,7.5c0,3.7-1.2,6.4-3.6,8.2s-5.9,2.6-10.5,2.6c-3.5-0.1-6.9-0.4-10.3-1l-2.1-0.3l0.3-3.9
	c4.1,0.7,8.3,1.1,12.5,1.2c2.4,0.1,4.7-0.4,6.8-1.5c1.6-1,2.4-2.7,2.4-5.2c0-2.4-0.7-4-2-4.8c-1.3-0.8-4.2-1.5-8.6-2.2
	c-4.4-0.7-7.5-1.6-9.3-2.9s-2.7-3.6-2.7-7.1s1.2-6,3.7-7.6c2.8-1.7,5.9-2.5,9.2-2.4c3.7,0.1,7.3,0.4,10.9,1l2,0.3l-0.1,3.9
	C454.6,245.6,450.4,245.3,446.2,245.1"/>
<path class="st0" d="M468.9,241.9h4.3v36.4h-4.3V241.9z M468.9,227.3h4.3v5.5h-4.3V227.3z"/>
<rect x="484.6" y="225.7" class="st0" width="4.3" height="52.6"/>
<polygon class="st0" points="523.2,241.9 513.5,274.5 510.9,274.5 501.2,241.9 496.8,241.9 507.4,278.3 512.5,278.3 507.6,294.6 
	512,294.6 527.7,241.9 "/>
<rect x="531.8" y="270.9" class="st0" width="4.8" height="7.4"/>
<g>
	<defs>
		<path id="SVGID_1_" d="M150.1,119.5c0-6.5,5.2-11.7,11.7-11.7s11.7,5.2,11.7,11.7s-5.2,11.7-11.7,11.7c0,0,0,0,0,0
			C155.3,131.2,150.1,126,150.1,119.5 M133.8,119.5c0,15.4,12.5,27.9,27.9,27.9s27.9-12.5,27.9-27.9c0-15.4-12.5-27.9-27.9-27.9
			C146.3,91.6,133.8,104.1,133.8,119.5C133.8,119.5,133.8,119.5,133.8,119.5 M260.4,42.3v77.1h-0.2v2.2c0,1.3-0.2,2.6-0.6,3.9
			c-0.5,1.5-1.3,2.8-2.4,3.9c-1.5,1.4-3.3,2.5-5.2,3.1c-3,1-6.1,1.4-9.2,1.3c-3.1,0.1-6.1-0.3-9-1.3c-1.9-0.7-3.6-1.8-5-3.2
			c-1.1-1.2-1.8-2.6-2.2-4.1c-0.3-1.3-0.5-2.5-0.5-3.8v-2h-0.2V42.3h-16.9v82.3c0.1,2.1,0.3,4.3,0.8,6.3c0.7,3,2.1,5.8,4.2,8.1
			c2.3,2.7,5.7,5,10.3,6.9s10.9,2.9,18.9,2.9c8,0,14.4-1,18.9-2.9s8-4.3,10.3-6.9c2.1-2.3,3.5-5.1,4.2-8c0.5-2.1,0.7-4.3,0.8-6.4
			V42.3H260.4z M127,40.9c-1.7,0.1-3.6,0.1-5.9,0.1c-8,0-14.4,1-18.9,2.9c-4.6,1.9-8,4.3-10.3,6.9c-2.1,2.3-3.6,5.1-4.2,8.1
			c-0.5,2.1-0.7,4.2-0.8,6.3v82.1H104V68.8c0-1.3,0.2-2.6,0.5-3.9c0.4-1.5,1.2-2.9,2.3-4c1.5-1.4,3.2-2.6,5.1-3.3
			c2.8-1,5.8-1.5,8.8-1.4c1.5,0,2.8,0,3.8-0.1s2.4-0.1,4-0.1l3.8-14.7c-1.4-0.2-2.9-0.3-4.3-0.3C127.7,40.9,127.4,40.9,127,40.9
			 M20.5,171.1c-2.4-2.6-3.6-6.3-3.6-11.2v-24.7c0.2,1.2,0.9,2.3,2,3c0.9,0.6,1.9,1.1,3,1.4c2.1,0.7,4.4,1.4,6.6,2.3
			s4.4,1.6,6.4,2.3c2.4,0.8,4.7,1.6,6.8,2.4c1.8,0.7,3.4,1.6,4.9,2.8c1.3,1.2,2.4,2.6,3.2,4.1c1,2,1.5,4.1,1.4,6.3
			c0,5.1-1.2,8.9-3.6,11.4c-2.4,2.5-6.9,3.7-13.5,3.7C27.5,175,22.9,173.7,20.5,171.1 M16.9,72v-3.8c0-1.3,0.2-2.6,0.6-3.9
			c0.5-1.5,1.3-2.9,2.5-3.9c1.6-1.4,3.4-2.4,5.4-3.1c2.9-1,6-1.4,9.1-1.3c3.1-0.1,6.1,0.3,9,1.3c1.9,0.7,3.6,1.8,5,3.3
			c1.1,1.2,1.8,2.6,2.2,4.1c0.3,1.3,0.5,2.6,0.5,3.9V72c0.1,3.1-1.1,6-3.3,8.1c-2.1,2.2-5,3.4-8,3.3H28.4c-0.5,0-1.4,0.1-2.6,0.2
			c-1.3,0.1-2.5,0.4-3.7,0.8c-1.2,0.4-2.3,0.9-3.3,1.7c-0.9,0.7-1.6,1.8-1.8,2.9L16.9,72z M15.3,43.8c-4.6,1.9-8,4.3-10.3,6.9
			c-2.1,2.3-3.5,5.1-4.2,8.1C0.4,61,0.1,63.1,0,65.2v100.6c0,2.7,0.5,5.4,1.3,8c1,3.1,2.7,5.8,5.1,7.9c3,2.7,6.6,4.7,10.5,6
			c4.4,1.6,10.2,2.4,17.3,2.4c7.1,0,12.9-0.8,17.3-2.4c3.9-1.3,7.4-3.3,10.5-6c2.4-2.1,4.2-4.9,5.1-7.9c0.8-2.6,1.3-5.3,1.3-8v-9.5
			c0.1-4.9-1.3-9.7-3.9-13.9c-2.6-4.1-6.5-7.3-11.2-8.9c-2.4-0.8-5.2-1.7-8.4-2.8s-6.1-2.1-8.9-3.1c-2.8-1-5.3-1.9-7.4-2.6
			s-3.5-1.2-4-1.3c-0.6-0.4-1.2-0.7-1.9-1c-0.9-0.4-1.8-0.8-2.6-1.4c-0.9-0.6-1.7-1.5-2.2-2.4c-0.6-1.1-1-2.4-0.9-3.7V111
			c-0.2-3.7,1.3-7.2,4-9.6c2.5-2.4,5.8-3.7,9.3-3.6h15.5c1.8,0,3.7-0.3,5.4-0.8c1.7-0.5,3.3-1.1,4.9-1.8c1.9-0.9,3.7-2.1,5.1-3.6
			c3.2-3.1,5.2-6.1,6-9c0.8-2.5,1.2-5.1,1.2-7.7v-9.6c-0.1-2.1-0.3-4.3-0.8-6.3c-0.7-3-2.1-5.8-4.2-8.1c-2.3-2.7-5.7-5-10.3-6.9
			c-4.6-2-10.9-2.9-18.9-2.9C26.1,40.8,19.8,41.8,15.3,43.8 M314,111.9V68.2c0-1.5,0.3-2.9,0.8-4.3c0.6-1.5,1.5-2.8,2.7-3.9
			c1.5-1.3,3.3-2.3,5.2-2.9c2.7-0.8,5.5-1.2,8.4-1.1c2.8-0.1,5.5,0.3,8.1,1c1.9,0.5,3.7,1.5,5.2,2.8c1.3,1.2,2.2,2.6,2.8,4.2
			c0.6,1.6,1,3.3,1.1,5v42.9c0.1,2.2-0.4,4.4-1.4,6.3c-0.8,1.5-1.9,2.9-3.2,4.1c-1.4,1.2-3.1,2.1-4.8,2.8c-2.1,0.8-4.4,1.6-6.8,2.4
			c-2,0.7-4.2,1.5-6.4,2.3s-4.5,1.6-6.6,2.3c-1.1,0.3-2.2,0.8-3.1,1.4c-1.1,0.8-1.8,1.9-1.9,3.2V111.9z M305.3,47.8
			C300.1,52,297,58.3,297,65v123.3h17.1v-29.4c0-1.5,0.3-2.9,0.9-4.2c0.6-1.2,1.3-2.2,2.1-3.2c0.7-0.8,1.5-1.5,2.4-2.1
			c0.8-0.5,1.5-0.8,2-1.1c0.5-0.1,1.9-0.6,4-1.4s4.7-1.7,7.5-2.7l9-3.1c3.1-1.1,5.8-2,8.3-2.8c4.7-1.5,8.7-4.7,11.3-8.9
			c2.6-4.2,3.9-9,3.8-13.9V65.2c0-3.3-0.6-6.5-1.9-9.5c-1.4-3.1-3.5-5.7-6.1-7.7c-3.2-2.4-6.8-4.1-10.6-5.2c-5-1.4-10.3-2-15.5-1.9
			C319.4,40.9,310.8,43.2,305.3,47.8 M519.6,1.6v70.4c-0.7-0.3-1.5-0.5-2.2-0.7c-0.8-0.2-1.7-0.4-2.6-0.7c-2.7-1-5.6-2-8.8-3.1
			s-5.9-2.1-8.2-2.9l-2.5-0.8c-0.8-0.3-1.5-0.5-2.2-0.8c-3.5-1.2-5.7-2.9-6.6-5c-0.9-1.8-1.3-3.8-1.4-5.8V1.6H468v53.5
			c0,5,1.7,9.8,4.7,13.8c3.2,4.4,8.5,7.6,16.2,9.8c0.4,0.1,0.8,0.2,1.2,0.4c2.3,0.8,4.8,1.7,7.5,2.6s5.2,1.7,7.3,2.4
			c0.9,0.4,2,0.8,3.3,1.3s2.2,0.8,2.9,1.1c3.5,1.2,5.7,2.9,6.7,5c0.9,1.7,1.4,3.7,1.5,5.6v50.3h17.1V1.6L519.6,1.6z M419.8,0
			c-8,0-14.4,1-18.9,2.9s-8,4.3-10.3,6.9c-2.1,2.3-3.5,5.1-4.2,8.1c-0.5,2.2-0.7,4.3-0.8,6.5v5h16.9v-2.2c0-1.3,0.2-2.7,0.6-3.9
			c0.5-1.5,1.3-2.9,2.5-3.9c1.6-1.4,3.4-2.4,5.4-3.1c3-1,6.1-1.4,9.2-1.3c3-0.1,6.1,0.3,9,1.3c1.9,0.7,3.6,1.8,5,3.3
			c1.1,1.2,1.8,2.6,2.2,4.1c0.3,1.3,0.5,2.6,0.5,3.9v24.3c-0.1,2-0.5,4-1.4,5.8c-0.9,2.1-3.2,3.8-6.6,5c-0.6,0.3-1.3,0.6-2,0.8
			l-2.4,0.8c-2.4,0.8-5.2,1.8-8.3,2.9s-6.1,2.2-8.8,3.1c-2.4,0.5-4.7,1.3-6.8,2.4c-8.3,3-14.1,10.5-14.9,19.3v55.1H454v-14.1h-51.5
			V97c0.2-1.9,0.8-3.9,1.6-5.6c0.9-2.2,3.2-3.8,6.6-4.8l2.9-1.2c1.1-0.5,2.2-0.9,3.3-1.2c2.1-0.7,4.6-1.5,7.3-2.4
			c2.8-0.9,5.3-1.8,7.5-2.6c0.4-0.2,0.8-0.3,1.2-0.4c7.2-2,12.4-5,15.6-8.9c3-3.7,4.9-8.2,5.3-13V24.5c-0.1-2.1-0.4-4.3-0.8-6.3
			c-0.7-3-2.1-5.8-4.2-8.1c-2.3-2.7-5.7-5-10.3-7S427.8,0,419.8,0L419.8,0z"/>
	</defs>
	<linearGradient id="SVGID_2_" gradientUnits="userSpaceOnUse" x1="1.525879e-05" y1="95.045" x2="536.69" y2="95.045">
		<stop  offset="0" style="stop-color:#FFFFFF"/>
		<stop  offset="1" style="stop-color:#000000"/>
	</linearGradient>
	<use xlink:href="#SVGID_1_"  style="overflow:visible;fill:url(#SVGID_2_);"/>
	<clipPath id="SVGID_3_">
		<use xlink:href="#SVGID_1_"  style="overflow:visible;"/>
	</clipPath>
	<g class="st1">
		<linearGradient id="SVGID_4_" gradientUnits="userSpaceOnUse" x1="0" y1="95.065" x2="536.63" y2="95.065">
			<stop  offset="0" style="stop-color:#0096BB"/>
			<stop  offset="1" style="stop-color:#6CBE99"/>
		</linearGradient>
		<rect y="0" class="st2" width="536.6" height="190.1"/>
	</g>
</g>
</svg>